<svg width="36" height="35" viewBox="0 0 36 35" fill="none" xmlns="http://www.w3.org/2000/svg">
<path d="M18.0001 16.1984L32.3776 7.21875C31.7995 6.79723 31.0976 6.5672 30.3751 6.5625H5.62506C4.90251 6.5672 4.20059 6.79723 3.62256 7.21875L18.0001 16.1984Z" fill="#F5C6B6"/>
<path d="M18.6075 18.4187L18.4163 18.5062H18.3263C18.2227 18.5512 18.1127 18.5807 18 18.5937C17.9066 18.6052 17.8121 18.6052 17.7188 18.5937H17.6288L17.4375 18.5062L2.3625 9.03436C2.29048 9.29855 2.25268 9.57044 2.25 9.84374V25.1562C2.25 26.0265 2.60558 26.8611 3.23851 27.4764C3.87145 28.0918 4.72989 28.4375 5.625 28.4375H30.375C31.2701 28.4375 32.1286 28.0918 32.7615 27.4764C33.3944 26.8611 33.75 26.0265 33.75 25.1562V9.84374C33.7473 9.57044 33.7095 9.29855 33.6375 9.03436L18.6075 18.4187Z" fill="#F5C6B6"/>
</svg>
