<svg width="1280" height="733" viewBox="0 0 1280 733" fill="none" xmlns="http://www.w3.org/2000/svg">
<path d="M0 0H607V644H0V0Z" fill="#F5C6B5"/>
<rect x="606" width="674" height="642" fill="#00584A"/>
<ellipse cx="1227.5" cy="101.755" rx="72.5" ry="70.8079" fill="#F5C6B5"/>
<ellipse cx="969.5" cy="571.297" rx="52.5" ry="51.2227" fill="#F5C6B5"/>
<ellipse cx="589.5" cy="238.349" rx="43.5" ry="41.6812" fill="#00584A"/>
<ellipse cx="1234" cy="332.258" rx="22" ry="22.0961" fill="#F5C6B5"/>
<ellipse cx="604.5" cy="622.017" rx="72.5" ry="70.8079" fill="#F5C6B5"/>
<ellipse cx="1324" cy="500.489" rx="112" ry="110.983" fill="#F5C6B5"/>
<path d="M148 622.018C148 683.312 97.8559 733 36 733C-25.8559 733 -76 683.312 -76 622.018C-76 560.724 -25.8559 511.035 36 511.035C97.8559 511.035 148 560.724 148 622.018Z" fill="#00584A"/>
<path d="M148 622.018C148 683.312 97.8559 733 36 733C-25.8559 733 -76 683.312 -76 622.018C-76 560.724 -25.8559 511.035 36 511.035C97.8559 511.035 148 560.724 148 622.018Z" fill="#00584A"/>
<path d="M96 140.424C96 160.947 80.1061 177.585 60.5 177.585C40.8939 177.585 25 160.947 25 140.424C25 119.9 40.8939 103.262 60.5 103.262C80.1061 103.262 96 119.9 96 140.424Z" fill="#00584A"/>
<path d="M82 436.21C82 450.354 70.5833 461.821 56.5 461.821C42.4167 461.821 31 450.354 31 436.21C31 422.065 42.4167 410.598 56.5 410.598C70.5833 410.598 82 422.065 82 436.21Z" fill="#00584A"/>
<path d="M534 153.48C534 164.574 525.046 173.568 514 173.568C502.954 173.568 494 164.574 494 153.48C494 142.386 502.954 133.393 514 133.393C525.046 133.393 534 142.386 534 153.48Z" fill="#00584A"/>
<ellipse cx="702.5" cy="79.6594" rx="43.5" ry="41.6812" fill="#FEC3AE"/>
<ellipse cx="651.5" cy="410.598" rx="30.5" ry="30.131" fill="#FEC3AE"/>
<path d="M435 80.6637C435 106.457 413.957 127.367 388 127.367C362.043 127.367 341 106.457 341 80.6637C341 54.8704 362.043 33.9607 388 33.9607C413.957 33.9607 435 54.8704 435 80.6637Z" fill="#00584A"/>
</svg>
