<svg width="1280" height="730" viewBox="0 0 1280 730" fill="none" xmlns="http://www.w3.org/2000/svg">
<rect y="1" width="1280" height="638" fill="#00584A"/>
<path d="M0 0H605V641H0V0Z" fill="#F5C6B5"/>
<ellipse cx="1227.5" cy="101.5" rx="72.5" ry="70.5" fill="#F5C6B5"/>
<ellipse cx="969.5" cy="569" rx="52.5" ry="51" fill="#F5C6B5"/>
<ellipse cx="589.5" cy="237.5" rx="43.5" ry="41.5" fill="#00584A"/>
<circle cx="1234" cy="331" r="22" fill="#F5C6B5"/>
<ellipse cx="604.5" cy="619.5" rx="72.5" ry="70.5" fill="#F5C6B5"/>
<ellipse cx="1324" cy="498.5" rx="112" ry="110.5" fill="#F5C6B5"/>
<path d="M148 619.5C148 680.528 97.8559 730 36 730C-25.8559 730 -76 680.528 -76 619.5C-76 558.473 -25.8559 509 36 509C97.8559 509 148 558.473 148 619.5Z" fill="#00584A"/>
<path d="M148 619.5C148 680.528 97.8559 730 36 730C-25.8559 730 -76 680.528 -76 619.5C-76 558.473 -25.8559 509 36 509C97.8559 509 148 558.473 148 619.5Z" fill="#00584A"/>
<path d="M96 140C96 160.435 80.1061 177 60.5 177C40.8939 177 25 160.435 25 140C25 119.565 40.8939 103 60.5 103C80.1061 103 96 119.565 96 140Z" fill="#00584A"/>
<path d="M82 434.5C82 448.583 70.5833 460 56.5 460C42.4167 460 31 448.583 31 434.5C31 420.417 42.4167 409 56.5 409C70.5833 409 82 420.417 82 434.5Z" fill="#00584A"/>
<path d="M534 153C534 164.046 525.046 173 514 173C502.954 173 494 164.046 494 153C494 141.954 502.954 133 514 133C525.046 133 534 141.954 534 153Z" fill="#00584A"/>
<path d="M481 495.5C481 533.332 450.332 564 412.5 564C374.668 564 344 533.332 344 495.5C344 457.668 374.668 427 412.5 427C450.332 427 481 457.668 481 495.5Z" fill="#00584A"/>
<path d="M508 308C508 421.218 416.218 513 303 513C189.782 513 98 421.218 98 308C98 194.782 189.782 103 303 103C416.218 103 508 194.782 508 308Z" fill="#00584A"/>
<ellipse cx="702.5" cy="79.5" rx="43.5" ry="41.5" fill="#FEC3AE"/>
<ellipse cx="651.5" cy="409" rx="30.5" ry="30" fill="#FEC3AE"/>
<path d="M425 106.5C425 132.181 403.957 153 378 153C352.043 153 331 132.181 331 106.5C331 80.8188 352.043 60 378 60C403.957 60 425 80.8188 425 106.5Z" fill="#00584A"/>
<path d="M366.969 535.993C366.547 535.813 366.211 535.529 365.961 535.139C365.792 534.907 365.68 534.599 365.625 534.216C365.587 533.835 365.577 533.211 365.595 532.345C365.629 531.054 365.715 529.385 365.852 527.336C365.918 526.197 366.043 524.827 366.227 523.226C366.41 521.642 366.595 520.246 366.783 519.039C366.936 518.139 367.044 517.488 367.107 517.085C367.187 516.669 367.266 516.268 367.343 515.884C367.954 512.432 368.843 508.627 370.01 504.469C370.208 503.738 370.371 503.183 370.496 502.804C370.622 502.426 370.727 502.151 370.812 501.981C370.915 501.796 371.04 501.638 371.186 501.508C371.316 501.375 371.485 501.263 371.692 501.173C371.915 501.084 372.212 500.995 372.582 500.907C372.836 500.837 373.071 500.791 373.287 500.766C373.504 500.726 373.761 500.698 374.058 500.683C375.284 500.562 376.481 500.561 377.647 500.679L378.083 500.729C380.994 501.064 383.308 502.093 385.027 503.814C385.188 503.98 385.369 504.189 385.569 504.442C385.785 504.696 385.956 504.921 386.081 505.115C387.142 506.712 387.648 508.507 387.599 510.5C387.591 510.712 387.576 510.915 387.554 511.109C387.464 511.885 387.276 512.666 386.989 513.452C386.049 516.064 383.721 518.565 380.006 520.955C379.757 521.123 379.561 521.256 379.419 521.354C379.294 521.438 379.179 521.515 379.073 521.585C378.967 521.654 378.834 521.737 378.676 521.834C378.639 521.862 378.596 521.882 378.546 521.893C377.506 522.526 376.419 523.147 375.284 523.753C375.043 523.857 374.835 523.956 374.66 524.05C374.502 524.147 374.404 524.209 374.368 524.238C374.174 524.363 374.069 524.49 374.054 524.619C374.043 524.716 374.066 524.801 374.123 524.873C374.18 524.945 374.293 525.032 374.462 525.133C374.537 525.191 374.737 525.304 375.062 525.473C375.388 525.625 375.752 525.806 376.154 526.016C376.556 526.226 376.92 526.407 377.247 526.56C377.417 526.645 377.649 526.762 377.943 526.91C378.238 527.059 378.532 527.207 378.826 527.356C379.059 527.465 379.315 527.593 379.593 527.739L380.71 528.286C381.067 528.458 381.33 528.586 381.501 528.672C381.687 528.759 381.818 528.831 381.893 528.889C381.971 528.931 382.048 528.972 382.125 529.014C382.641 529.368 382.961 529.79 383.085 530.279C383.142 530.499 383.159 530.706 383.136 530.9C383.103 531.191 382.988 531.473 382.793 531.745C382.714 531.867 382.602 531.985 382.458 532.099C382.315 532.198 382.158 532.278 381.987 532.34C381.833 532.404 381.681 532.444 381.531 532.46C381.384 532.459 381.189 532.445 380.946 532.417L380.898 532.411C380.785 532.398 380.663 532.384 380.534 532.37C380.423 532.34 380.258 532.28 380.039 532.19C379.822 532.083 379.488 531.921 379.038 531.706C378.589 531.474 377.962 531.156 377.157 530.752C377.094 530.728 377.032 530.696 376.971 530.657C376.507 530.423 376.073 530.209 375.669 530.015C375.466 529.926 375.319 529.852 375.228 529.792C375.055 529.723 374.814 529.614 374.504 529.463C374.211 529.299 373.91 529.141 373.6 528.991C372.95 528.654 372.347 528.347 371.789 528.069C371.231 527.792 370.852 527.601 370.651 527.496C370.462 527.425 370.303 527.382 370.174 527.367C370.061 527.354 369.97 527.36 369.902 527.385C369.797 527.439 369.72 527.536 369.671 527.678C369.638 527.822 369.614 527.966 369.597 528.112C369.578 528.273 369.565 528.46 369.557 528.672C369.54 528.818 369.53 528.981 369.525 529.16C369.523 529.324 369.522 529.471 369.524 529.602C369.472 530.334 369.428 531.074 369.391 531.823C369.371 532.559 369.373 533.116 369.395 533.495C369.399 533.741 369.388 533.978 369.362 534.204C369.297 534.77 369.125 535.201 368.845 535.496C368.561 535.824 368.211 536.021 367.794 536.088C367.661 536.105 367.513 536.105 367.351 536.086C367.206 536.069 367.078 536.038 366.969 535.993ZM371.041 521.544C371.194 521.496 371.479 521.374 371.895 521.176C372.329 520.964 372.798 520.731 373.302 520.478C373.825 520.21 374.296 519.961 374.715 519.731C377.43 518.209 379.501 516.801 380.928 515.507C382.573 514.025 383.511 512.495 383.742 510.916L383.753 510.819C383.867 509.833 383.723 508.874 383.323 507.943C383.073 507.407 382.751 506.935 382.355 506.529C381.566 505.701 380.471 505.108 379.07 504.75C378.625 504.633 378.095 504.54 377.48 504.469L377.117 504.427C376.369 504.374 375.657 504.373 374.979 504.426C374.682 504.441 374.448 504.48 374.277 504.542C374.122 504.606 374.005 504.699 373.926 504.821C373.868 504.896 373.775 505.132 373.648 505.527C373.538 505.907 373.361 506.591 373.117 507.579C371.974 511.805 371.09 516.004 370.462 520.175L370.417 520.563C370.389 520.806 370.376 520.993 370.377 521.124C370.387 521.322 370.438 521.45 370.529 521.51C370.59 521.55 370.653 521.573 370.718 521.581C370.815 521.592 370.923 521.58 371.041 521.544Z" fill="#EDDED2"/>
<path d="M398.064 533.185C396.597 533.277 395.22 532.953 393.933 532.214C392.098 531.092 390.83 529.323 390.127 526.907C389.961 526.306 389.834 525.699 389.748 525.087C389.502 523.346 389.559 521.53 389.916 519.639C390.237 517.95 390.783 516.459 391.554 515.167C391.688 514.951 391.873 514.687 392.108 514.374C392.344 514.061 392.547 513.811 392.717 513.622C393.575 512.713 394.502 512.113 395.497 511.825C395.623 511.791 395.775 511.761 395.953 511.736L396.219 511.699C396.492 511.66 396.738 511.65 396.954 511.669C398.517 511.794 399.647 512.522 400.344 513.854C400.456 514.068 400.534 514.271 400.578 514.462C400.637 514.651 400.691 514.915 400.738 515.253C400.786 515.592 400.809 515.868 400.806 516.082C400.817 516.278 400.803 516.526 400.763 516.828C400.639 517.93 400.253 519.036 399.604 520.147C399.486 520.361 399.302 520.633 399.053 520.964C398.804 521.295 398.601 521.546 398.444 521.716C397.669 522.515 396.815 523.104 395.882 523.482C395.664 523.562 395.444 523.635 395.223 523.699C395.018 523.76 394.762 523.813 394.456 523.856C394.297 523.895 394.17 523.929 394.076 523.959C393.995 523.97 393.932 523.987 393.886 524.01C393.854 524.015 393.823 524.027 393.793 524.048C393.673 524.131 393.597 524.232 393.564 524.351C393.532 524.471 393.529 524.628 393.556 524.821L393.608 525.011C393.945 526.936 394.749 528.269 396.021 529.01C396.644 529.35 397.318 529.468 398.043 529.366L398.116 529.356C398.68 529.276 399.277 529.02 399.906 528.586C401.286 527.652 402.454 526.082 403.409 523.876C403.619 523.386 403.835 522.821 404.057 522.182C404.293 521.524 404.458 521 404.551 520.608C404.569 520.507 404.6 520.379 404.645 520.225C404.689 520.071 404.727 519.934 404.759 519.815C404.757 519.799 404.763 519.781 404.777 519.763L404.923 519.225L405.089 518.659C405.201 518.281 405.292 517.997 405.364 517.806C405.449 517.597 405.549 517.427 405.662 517.296C405.985 516.905 406.372 516.678 406.823 516.614C406.92 516.601 407.026 516.594 407.141 516.594C407.718 516.611 408.207 516.871 408.607 517.374C408.77 517.597 408.873 517.862 408.916 518.169C408.959 518.475 408.942 518.822 408.866 519.211C408.276 521.793 407.475 524.157 406.463 526.305C405.063 529.198 403.228 531.224 400.959 532.382C400.346 532.699 399.711 532.92 399.055 533.045C398.88 533.086 398.72 533.117 398.575 533.137C398.446 533.156 398.276 533.171 398.064 533.185ZM394.726 519.824C395.281 519.565 395.781 519.091 396.227 518.404C396.672 517.717 396.921 517.032 396.973 516.351C396.975 516.252 396.971 516.162 396.96 516.082C396.939 515.937 396.89 515.82 396.812 515.733C396.699 515.634 396.57 515.594 396.425 515.615C396.361 515.624 396.306 515.64 396.26 515.663C395.962 515.77 395.644 516.021 395.305 516.414C394.982 516.804 394.688 517.281 394.422 517.845C394.029 518.673 393.857 519.256 393.904 519.594L393.935 519.639C393.983 519.863 394.136 519.956 394.394 519.92C394.491 519.906 394.601 519.874 394.726 519.824Z" fill="#EDDED2"/>
<path d="M420.393 530.013C419.28 530.336 418.138 530.297 416.967 529.896C416.749 529.821 416.493 529.716 416.2 529.581C415.908 529.446 415.659 529.312 415.454 529.179C413.238 527.828 411.31 525.468 409.67 522.1C409.582 521.907 409.518 521.757 409.478 521.65C409.418 521.534 409.365 521.415 409.32 521.292C409.254 521.161 409.169 520.975 409.063 520.737L409.03 520.645C408.879 520.284 408.742 519.936 408.618 519.6L408.441 519.119C408.266 518.645 408.07 518.041 407.851 517.307C407.292 515.414 406.868 513.462 406.578 511.453C406.155 508.33 406.193 505.584 406.69 503.215C407.022 501.67 407.549 500.392 408.269 499.381C408.896 498.542 409.599 497.98 410.378 497.693C411.127 497.417 411.934 497.396 412.802 497.632C412.958 497.678 413.154 497.762 413.389 497.884C413.64 497.999 413.844 498.106 414.002 498.204C414.165 498.318 414.353 498.474 414.565 498.673C414.777 498.873 414.947 499.053 415.076 499.213C415.553 499.801 415.932 500.476 416.213 501.24C416.399 501.744 416.545 502.28 416.65 502.848C417.157 505.871 416.7 509.031 415.28 512.33C414.496 514.111 413.569 515.572 412.498 516.712C412.314 516.919 412.185 517.088 412.112 517.219C412.033 517.335 411.991 517.455 411.984 517.578C411.986 517.63 411.985 517.674 411.981 517.71C411.992 517.74 412.009 517.786 412.031 517.847C412.048 517.893 412.076 517.969 412.116 518.076C412.149 518.168 412.2 518.305 412.268 518.489C413.129 520.825 414.244 522.791 415.612 524.385C416.413 525.287 417.171 525.884 417.885 526.175C418.444 526.42 418.945 526.461 419.388 526.298C419.785 526.152 420.138 525.839 420.447 525.361C420.545 525.203 420.662 524.978 420.797 524.686C420.942 524.372 421.054 524.088 421.133 523.833C421.197 523.584 421.27 523.288 421.352 522.946C421.45 522.598 421.53 522.273 421.592 521.973C421.94 520.093 422.078 517.292 422.008 513.571C422.005 513.139 422.022 512.785 422.06 512.511C422.113 512.232 422.192 511.977 422.298 511.747C422.464 511.443 422.68 511.207 422.948 511.039C423.059 510.963 423.175 510.903 423.298 510.858C423.725 510.7 424.156 510.715 424.589 510.902C425.028 511.105 425.342 511.44 425.532 511.908L425.583 512.045C425.656 512.244 425.709 512.458 425.742 512.689C425.782 512.987 425.805 513.472 425.811 514.147C425.835 514.589 425.844 514.941 425.836 515.204C425.844 515.461 425.843 515.74 425.832 516.039C425.83 516.317 425.815 516.721 425.785 517.253C425.769 518.057 425.748 518.706 425.723 519.201C425.691 519.681 425.641 520.203 425.571 520.766C425.143 524.688 424.105 527.378 422.457 528.836C421.89 529.322 421.301 529.678 420.69 529.903L420.393 530.013ZM411.101 512.076C411.191 511.99 411.277 511.872 411.36 511.72C411.452 511.547 411.574 511.311 411.724 511.013C412.658 508.934 413.106 506.904 413.07 504.923C413.014 503.972 412.874 503.191 412.648 502.58L412.547 502.305C412.244 501.671 411.924 501.416 411.588 501.54C411.466 501.585 411.358 501.668 411.264 501.789C411.164 501.896 411.057 502.074 410.941 502.325C410.065 504.278 409.859 507.13 410.322 510.88C410.393 511.356 410.452 511.656 410.497 511.778C410.536 511.885 410.558 511.946 410.564 511.961C410.62 512.114 410.703 512.196 410.811 512.208C410.863 512.207 410.911 512.197 410.957 512.18C411.003 512.164 411.051 512.129 411.101 512.076Z" fill="#EDDED2"/>
<path d="M433.953 522.658C433.484 522.895 432.972 523.023 432.417 523.044C432.219 523.04 431.984 523.012 431.713 522.959C431.433 522.892 431.189 522.821 430.981 522.745C430.809 522.665 430.664 522.595 430.546 522.537C430.42 522.465 430.273 522.378 430.105 522.275C429.191 521.674 428.293 520.719 427.411 519.409C427.266 519.193 427.123 518.965 426.982 518.727C426.491 517.939 426.043 517.054 425.637 516.071C424.505 513.34 423.995 510.731 424.107 508.243C424.229 506.18 424.816 504.588 425.867 503.469C426.015 503.31 426.157 503.185 426.292 503.095C426.427 503.004 426.528 502.936 426.596 502.89C426.731 502.799 426.857 502.724 426.974 502.665C427.916 502.169 428.937 502.041 430.04 502.28C431.138 502.483 432.24 503.173 433.346 504.351C433.455 504.454 433.548 504.549 433.625 504.634C433.707 504.697 433.752 504.735 433.761 504.749C433.77 504.762 433.852 504.884 434.007 505.113C434.174 505.334 434.372 505.613 434.599 505.95C434.985 506.495 435.276 506.898 435.471 507.159C435.666 507.42 435.893 507.699 436.152 507.996C437.109 509.097 438.083 510.021 439.075 510.766C440.071 511.489 440.895 511.896 441.545 511.988C441.852 512.036 442.101 511.997 442.29 511.87C442.749 511.561 442.958 510.792 442.916 509.565C442.919 509.249 442.907 508.953 442.879 508.678C442.855 508.38 442.815 508.014 442.759 507.581C442.595 506.259 442.208 504.489 441.599 502.271C441.493 501.91 441.413 501.631 441.358 501.432C441.316 501.225 441.289 501.067 441.275 500.959C441.252 500.837 441.233 500.722 441.219 500.613C441.209 500.424 441.224 500.228 441.264 500.024C441.317 499.812 441.386 499.638 441.472 499.502C441.642 499.23 441.842 499.017 442.072 498.863C442.315 498.699 442.585 498.606 442.883 498.582C443.488 498.548 444.01 498.785 444.45 499.293L444.545 499.435C444.682 499.637 444.818 499.928 444.955 500.306C445.129 500.798 445.338 501.53 445.581 502.504C446.054 504.344 446.372 505.866 446.535 507.071C446.871 509.611 446.737 511.584 446.134 512.991C445.906 513.556 445.585 514.056 445.172 514.491C445.086 514.568 445.001 514.646 444.915 514.723C444.834 514.777 444.693 514.873 444.49 515.009C444.288 515.145 444.139 515.245 444.044 515.309C443.954 515.35 443.858 515.395 443.754 515.445C443.398 515.587 443.026 515.69 442.638 515.755C442.444 515.787 442.27 515.806 442.117 515.811C441.963 515.816 441.783 515.81 441.575 515.793C440.198 515.758 438.656 515.129 436.949 513.903C436.709 513.751 436.53 513.646 436.413 513.588C436.286 513.516 436.187 513.485 436.114 513.494C436.078 513.499 436.04 513.515 435.999 513.542C435.918 513.596 435.871 513.716 435.859 513.901C435.859 513.96 435.866 514.102 435.881 514.328C435.909 514.544 435.942 514.797 435.979 515.086C436.016 515.375 436.054 515.663 436.091 515.952C436.128 516.241 436.145 516.455 436.141 516.595C436.338 519.307 435.818 521.187 434.581 522.236C434.468 522.331 434.365 522.41 434.27 522.474C434.176 522.537 434.07 522.599 433.953 522.658ZM432.269 518.494C432.475 518.1 432.425 516.918 432.119 514.947C432.03 514.319 431.878 513.451 431.661 512.342C431.457 511.223 431.249 510.127 431.037 509.053C430.931 508.517 430.85 508.12 430.795 507.863C430.731 507.592 430.664 507.392 430.596 507.261C430.528 507.13 430.444 506.991 430.344 506.842C430.198 506.626 430.08 506.48 429.99 506.404C429.646 506.125 429.311 506.007 428.986 506.049C428.878 506.063 428.777 506.102 428.682 506.165C428.587 506.229 428.5 506.317 428.419 506.431C428.253 506.68 428.119 507.034 428.017 507.495C427.612 509.926 428.182 512.711 429.725 515.851C429.962 516.319 430.253 516.81 430.599 517.323C431.089 518.052 431.457 518.482 431.701 518.612C431.882 518.706 432.026 518.716 432.134 518.644C432.188 518.607 432.233 518.557 432.269 518.494Z" fill="#EDDED2"/>
<path d="M454.181 511.905C453.914 512.082 453.615 512.185 453.282 512.215C453.155 512.211 453.057 512.211 452.988 512.215C452.907 512.208 452.819 512.184 452.725 512.143C452.456 512.078 452.206 511.942 451.975 511.736C451.66 511.454 451.377 511.038 451.127 510.487C451.061 510.341 450.968 510.115 450.847 509.811C450.726 509.507 450.624 509.241 450.542 509.016C450.529 508.982 450.514 508.913 450.496 508.811C450.456 508.709 450.41 508.602 450.357 508.49C450.098 507.778 449.795 506.896 449.447 505.844C449.099 504.792 448.766 503.784 448.447 502.823C448.314 502.311 448.204 501.995 448.116 501.873C448.017 501.74 447.936 501.647 447.876 501.593C447.742 501.473 447.557 501.363 447.321 501.261C446.384 500.795 445.558 500.352 444.842 499.931C444.127 499.51 443.076 498.866 441.69 497.999C441.211 497.681 440.846 497.442 440.595 497.283C440.344 497.124 440.17 497.002 440.073 496.915C439.953 496.83 439.856 496.754 439.783 496.689C439.268 496.142 439.095 495.518 439.263 494.817C439.361 494.511 439.502 494.256 439.686 494.049C439.838 493.879 440.02 493.736 440.233 493.621C440.704 493.387 441.204 493.364 441.733 493.553C441.803 493.572 441.904 493.619 442.035 493.692C442.154 493.754 442.351 493.876 442.626 494.056C442.9 494.214 443.294 494.457 443.808 494.785C443.904 494.849 443.994 494.907 444.078 494.96C444.472 495.203 444.807 495.414 445.082 495.595C445.368 495.763 445.541 495.863 445.6 495.894C445.934 496.083 446.165 496.104 446.295 495.959C446.339 495.91 446.364 495.845 446.371 495.764C446.389 495.671 446.381 495.533 446.348 495.35C446.314 495.168 446.259 494.912 446.183 494.582C445.538 491.736 445.038 488.998 444.682 486.367C444.609 485.691 444.588 485.214 444.619 484.935C444.661 484.668 444.745 484.415 444.87 484.178C444.933 484.082 445.003 483.991 445.079 483.906C445.242 483.724 445.441 483.575 445.676 483.458C446.024 483.288 446.384 483.239 446.757 483.31C447.13 483.381 447.444 483.531 447.699 483.759C448.003 484.03 448.208 484.41 448.317 484.899L448.328 485.106C448.362 485.289 448.396 485.494 448.432 485.723C448.907 489.223 449.602 492.769 450.52 496.36C450.682 496.985 450.812 497.45 450.91 497.756C450.996 498.051 451.071 498.26 451.135 498.383C451.2 498.506 451.281 498.611 451.378 498.698C451.572 498.871 452.032 499.053 452.757 499.242C454.888 499.814 456.433 499.83 457.394 499.292C457.473 499.253 457.534 499.22 457.579 499.195C457.622 499.146 457.666 499.109 457.711 499.084C457.754 499.035 457.808 498.974 457.874 498.902C458.014 498.744 458.116 498.606 458.179 498.487C458.252 498.356 458.312 498.191 458.358 497.992C458.454 497.641 458.482 497.23 458.444 496.76C458.282 494.694 457.128 491.624 454.985 487.549C454.919 487.403 454.848 487.263 454.771 487.129C454.705 486.983 454.659 486.876 454.632 486.808C454.354 486.167 454.32 485.569 454.531 485.016C454.549 484.922 454.579 484.851 454.622 484.803C454.654 484.744 454.713 484.665 454.799 484.568L454.897 484.459C455.114 484.216 455.364 484.058 455.648 483.984C456.284 483.81 456.881 483.972 457.439 484.471C457.622 484.634 457.782 484.821 457.921 485.032C458.07 485.231 458.254 485.526 458.472 485.917C458.884 486.678 459.306 487.524 459.739 488.456C460.172 489.389 460.549 490.249 460.871 491.038C461.556 492.763 461.994 494.3 462.186 495.65C462.223 495.901 462.252 496.222 462.275 496.613C462.297 497.004 462.303 497.315 462.293 497.546C462.211 498.761 461.874 499.834 461.281 500.767C461.154 500.959 460.987 501.17 460.781 501.4C460.575 501.631 460.384 501.82 460.208 501.969C459.282 502.713 458.173 503.184 456.882 503.384C456.664 503.408 456.383 503.43 456.038 503.449C455.681 503.458 455.393 503.462 455.174 503.463C454.781 503.439 454.34 503.395 453.853 503.33C453.447 503.295 453.182 503.299 453.058 503.341C453.013 503.366 452.969 503.403 452.926 503.452C452.882 503.5 452.851 503.548 452.83 503.595C452.821 503.631 452.818 503.694 452.824 503.786C452.829 503.878 452.84 503.975 452.857 504.078C452.887 504.192 452.984 504.486 453.149 504.961C453.302 505.425 453.488 505.95 453.705 506.537C453.9 507.126 454.085 507.651 454.261 508.114C454.41 508.509 454.525 508.808 454.606 509.011C454.663 509.215 454.707 509.386 454.738 509.522C454.919 510.273 454.89 510.88 454.651 511.343C454.587 511.439 454.522 511.523 454.457 511.596C454.392 511.669 454.338 511.729 454.295 511.778L454.181 511.905Z" fill="#EDDED2"/>
<path d="M468.124 484.861C467.645 485.298 467.055 485.454 466.355 485.33C466.053 485.267 465.677 485.105 465.226 484.843C465.072 484.753 464.9 484.644 464.711 484.516C463.465 483.679 461.909 482.615 460.043 481.324C458.171 480.01 456.62 478.921 455.391 478.056C455.083 477.84 454.636 477.524 454.05 477.108C453.449 476.684 452.964 476.336 452.595 476.065C452.036 475.665 451.443 475.245 450.814 474.804C450.179 474.342 449.621 473.942 449.139 473.605C448.916 473.438 448.731 473.303 448.584 473.199C448.348 473.023 448.068 472.824 447.747 472.599C447.434 472.361 447.159 472.154 446.922 471.979C446.691 471.825 446.481 471.685 446.292 471.556C446.097 471.405 445.976 471.307 445.927 471.26C445.236 470.764 444.837 470.269 444.73 469.773C444.584 469.312 444.625 468.884 444.854 468.49L444.94 468.343C444.997 468.244 445.053 468.164 445.108 468.101C445.202 468.005 445.313 467.91 445.443 467.816C445.817 467.562 446.224 467.46 446.666 467.51C446.739 467.515 446.818 467.523 446.905 467.536C446.978 467.54 447.028 467.551 447.056 467.567C447.185 467.605 447.327 467.668 447.482 467.758C447.645 467.834 447.785 467.916 447.904 468.003C448.065 468.116 448.522 468.447 449.275 468.997C450.014 469.54 450.816 470.119 451.682 470.735C452.534 471.342 453.196 471.821 453.67 472.172C456.533 474.211 458.872 475.871 460.687 477.152C462.497 478.411 464.316 479.655 466.142 480.886C466.666 481.247 467.047 481.515 467.284 481.69C467.521 481.866 467.697 482.015 467.814 482.139C468.193 482.491 468.428 482.863 468.52 483.256C468.617 483.575 468.62 483.878 468.529 484.164C468.478 484.285 468.415 484.409 468.342 484.535C468.268 484.662 468.196 484.771 468.124 484.861ZM474.129 488.716C473.686 489.155 473.145 489.34 472.508 489.271C472.27 489.227 472.06 489.152 471.877 489.046C471.722 488.956 471.586 488.849 471.47 488.725C471.19 488.43 471.019 488.076 470.957 487.664C470.909 487.26 470.996 486.868 471.217 486.488C471.429 486.122 471.73 485.864 472.119 485.713C472.404 485.578 472.691 485.538 472.979 485.592C473.262 485.624 473.502 485.698 473.699 485.812C473.769 485.853 473.835 485.901 473.897 485.956C474.239 486.211 474.466 486.55 474.578 486.972C474.716 487.448 474.662 487.897 474.417 488.319L474.38 488.382C474.314 488.495 474.231 488.606 474.129 488.716Z" fill="#EDDED2"/>
</svg>
