<svg width="26" height="44" viewBox="0 0 26 44" fill="none" xmlns="http://www.w3.org/2000/svg">
<path d="M21.9177 0H25.7438V12.9513H21.9991C20.0609 12.9513 18.4846 14.501 18.4417 16.429V16.433H23.9129V27.567H18.4417V44H5.49037V27.567H0V16.433H5.49041C5.54425 7.38383 12.8618 0.0615311 21.9042 8.58902e-05L21.91 0H21.9177ZM21.9177 9.12526V3.82606C14.9508 3.89842 9.32876 9.55401 9.3108 16.5269V20.2591H3.82611V23.7409H9.31648V40.1739H14.6156V23.7409H20.0869V20.2591H14.6156V16.5286V16.5092C14.6156 12.4578 17.8782 9.16849 21.9194 9.12526H21.9235H21.9177Z" fill="#F5C6B5"/>
</svg>
