<svg width="37" height="44" viewBox="0 0 37 44" fill="none" xmlns="http://www.w3.org/2000/svg">
<path d="M18.6567 0H29.0949V1.50046C29.0949 5.20659 31.5932 8.32926 34.9975 9.27623L35.0542 9.28973H36.5643V19.7279H35.0819C32.9319 19.7228 30.8747 19.3319 28.9738 18.6209L29.0949 18.6606V29.4525C29.0949 37.4869 22.5818 44 14.5475 44C6.51316 44 0 37.487 0 29.4526C0 21.4183 6.51311 14.9052 14.5475 14.9052H16.0298V25.3157H14.5376C12.2615 25.3157 10.4165 27.1608 10.4165 29.4368C10.4165 31.7127 12.2616 33.5579 14.5376 33.5579C16.8101 33.5579 18.653 31.7184 18.6587 29.4472V29.4466L18.6567 0ZM26.225 2.96478H21.6216V29.4506C21.6121 33.3515 18.4477 36.51 14.5456 36.51C10.6375 36.51 7.46951 33.342 7.46951 29.4339C7.46951 26.0511 9.84343 23.2226 13.0163 22.5236L13.0632 22.5149V17.9688C7.33587 18.7291 2.96295 23.582 2.96295 29.4562C2.96295 35.8531 8.14865 41.0387 14.5455 41.0387C20.9423 41.0387 26.1279 35.8533 26.1281 29.4565V13.986L28.668 15.257C30.1019 15.9813 31.7713 16.4863 33.5352 16.6764L33.5995 16.682V11.9382C29.6779 10.5747 26.8033 7.1661 26.2315 3.02228L26.225 2.96478Z" fill="#F5C6B5"/>
</svg>
