<svg width="45" height="44" viewBox="0 0 45 44" fill="none" xmlns="http://www.w3.org/2000/svg">
<path d="M9.43044 0H35.5696C40.7755 0.00539042 44.9944 4.08004 45 9.10777V34.3545C44.9944 39.3827 40.7756 43.4575 35.5701 43.4628H9.43044C4.22446 43.4575 0.00558105 39.3828 0 34.3551V9.10832C0.00558105 4.08012 4.22437 0.00539042 9.42987 0H9.4304H9.43044ZM35.5696 39.6835C38.6154 39.6803 41.0836 37.2964 41.0869 34.3549V9.1084C41.0836 6.16659 38.6154 3.78267 35.5699 3.77945H9.4304C6.38455 3.78267 3.91636 6.16659 3.91307 9.10806V34.3546C3.91636 37.2965 6.38455 39.6803 9.43009 39.6835H9.4304H35.5696ZM22.5 10.8279C28.7348 10.8279 33.7891 15.7096 33.7891 21.7314C33.7891 27.7533 28.7348 32.6349 22.5 32.6349C16.2652 32.6349 11.2109 27.7533 11.2109 21.7314C11.2187 15.7126 16.2683 10.8355 22.4993 10.8279H22.5ZM22.5 28.8556C26.5737 28.8556 29.8761 25.666 29.8761 21.7314C29.8761 17.7969 26.5737 14.6073 22.5 14.6073C18.4263 14.6073 15.1239 17.7969 15.1239 21.7314C15.1283 25.6643 18.4281 28.8513 22.4996 28.8556H22.5ZM37.4282 10.0154C37.4282 11.5078 36.1756 12.7176 34.6304 12.7176C33.0852 12.7176 31.8326 11.5078 31.8326 10.0154C31.8326 8.52293 33.0852 7.3131 34.6304 7.3131C36.1756 7.3131 37.4282 8.52293 37.4282 10.0154Z" fill="#F5C6B5"/>
</svg>
